<?xml version="1.0" encoding="utf-8"?>
<!-- Generator: Adobe Illustrator 25.0.1, SVG Export Plug-In . SVG Version: 6.00 Build 0)  -->
<svg version="1.1" id="Layer_1" xmlns="http://www.w3.org/2000/svg" xmlns:xlink="http://www.w3.org/1999/xlink" x="144x" y="144px"
	 viewBox="0 0 24 24" style="enable-background:new 0 0 24 24;" xml:space="preserve">
<style type="text/css">
	.st0{fill:#FFFFFF;}
</style>
<path d="M16.7,23.3v-1.9h-2.8v1.9c0,0.3,0.1,0.6,0.3,0.8h2.2C16.6,23.8,16.7,23.6,16.7,23.3z"/>
<ellipse cx="8.1" cy="8.9" rx="1.7" ry="1.8"/>
<path d="M24,0H0v24h11.4c0-0.2,0-0.3,0-0.5v-2.2H6.8v-3h12.5v5.2c0,0.2,0,0.3,0,0.5H24V0z M8.1,12c-1.9,0-3.2-1.4-3.2-3.2
	c0-1.8,1.3-3.2,3.2-3.2c1.9,0,3.2,1.4,3.2,3.2C11.3,10.6,10,12,8.1,12z M22.1,13.1l-1.8-2.9h0v2.9h-1.5v-6h1.5v2.7h0L22,7.1h1.6
	l-2,2.8l2.2,3.1H22.1z"/>
<path class="st0" d="M8.1,5.7c-1.9,0-3.2,1.4-3.2,3.2c0,1.8,1.3,3.2,3.2,3.2c1.9,0,3.2-1.4,3.2-3.2C11.3,7.1,10,5.7,8.1,5.7z
	 M8.1,10.7c-1.1,0-1.7-0.8-1.7-1.8c0-1,0.7-1.8,1.7-1.8c1.1,0,1.7,0.8,1.7,1.8C9.8,9.9,9.1,10.7,8.1,10.7z"/>
<polygon class="st0" points="23.6,7.1 22,7.1 20.3,9.8 20.3,9.8 20.3,7.1 18.8,7.1 18.8,13.1 20.3,13.1 20.3,10.2 20.3,10.2
	22.1,13.1 23.7,13.1 21.6,10 "/>
<path class="st0" d="M19.3,18.3H6.8v3h4.5v2.2c0,0.2,0,0.3,0,0.5h2.9c-0.2-0.2-0.3-0.5-0.3-0.8v-1.9h2.8v1.9c0,0.3-0.1,0.6-0.3,0.8
	h2.8c0-0.2,0-0.3,0-0.5V18.3z"/>
</svg>
